<svg width="42" height="28" viewBox="0 0 42 28" fill="none" xmlns="http://www.w3.org/2000/svg">
<g id="Logo" clip-path="url(#clip0_3_376)">
<path id="Vector" d="M39.375 0.874998C39.375 1.35825 39.7667 1.75 40.25 1.75H41.125C41.6083 1.75 42 1.35825 42 0.874998C42 0.391751 41.6083 0 41.125 0H40.25C39.7667 0 39.375 0.391751 39.375 0.874998Z" fill="white"/>
<path id="Vector_2" d="M14 28H18.2506L17.0131 26.7625C16.685 26.4344 16.2399 26.25 15.7758 26.25H14C7.2345 26.25 1.75 20.7655 1.75 14C1.75 7.2345 7.2345 1.75001 14 1.75H28C34.7655 1.75 40.25 7.2345 40.25 14C40.25 20.7655 34.7655 26.25 28 26.25H22.7629C22.0667 26.25 21.399 25.9734 20.9067 25.4812L19.457 24.0314C18.6365 23.211 17.5237 22.75 16.3633 22.75H14C9.16748 22.75 5.25 18.8325 5.25 14C5.25 9.16748 9.16748 5.25 14 5.25H28C32.8325 5.25 36.75 9.16748 36.75 14C36.75 18.8325 32.8325 22.75 28 22.75H24.6373C23.941 22.75 23.2734 22.4734 22.7811 21.9812L21.3313 20.5314C20.5108 19.711 19.3981 19.25 18.2377 19.25H14C11.1005 19.25 8.75 16.8995 8.75 14C8.75 11.1005 11.1005 8.75 14 8.75H28C30.8995 8.75 33.25 11.1005 33.25 14C33.25 16.8641 30.9564 19.1926 28.1058 19.249L28.1053 19.25H26.8248C26.1285 19.25 25.4609 18.9734 24.9686 18.4812L23.5188 17.0314C22.8456 16.3582 21.9756 15.927 21.044 15.794L21 15.75H14C13.0335 15.75 12.25 14.9665 12.25 14C12.25 13.0335 13.0335 12.25 14 12.25H28C28.9665 12.25 29.75 13.0335 29.75 14C29.75 14.9665 28.9665 15.75 28 15.75H24.5L25.7375 16.9875C26.0656 17.3156 26.5107 17.5 26.9748 17.5H28C29.933 17.5 31.5 15.933 31.5 14C31.5 12.067 29.933 10.5 28 10.5H14C12.067 10.5 10.5 12.067 10.5 14C10.5 15.933 12.067 17.5 14 17.5H20.4252C21.1215 17.5 21.7891 17.7766 22.2814 18.2688L23.7312 19.7186C24.5517 20.539 25.6644 21 26.8248 21H28.4375V20.9866C32.0997 20.7607 35 17.719 35 14C35 10.134 31.866 7 28 7H14C10.134 7 7 10.134 7 14C7 17.866 10.134 21 14 21H18.2377C18.934 21 19.6016 21.2766 20.0939 21.7688L21.5437 23.2186C22.3642 24.039 23.4769 24.5 24.6373 24.5H28C33.799 24.5 38.5 19.799 38.5 14C38.5 8.20099 33.799 3.5 28 3.5H14C8.20099 3.5 3.5 8.20099 3.5 14C3.5 19.799 8.20099 24.5 14 24.5H16.3633C17.0596 24.5 17.7272 24.7766 18.2195 25.2688L19.6693 26.7186C20.4898 27.539 21.6026 28 22.7629 28H28C35.732 28 42 21.732 42 14C42 6.26801 35.732 -6.75951e-07 28 0L14 2.89285e-06C6.26801 3.5688e-06 -6.75951e-07 6.26802 0 14C6.75952e-07 21.732 6.26802 28 14 28Z" fill="white"/>
</g>
<defs>
<clipPath id="clip0_3_376">
<rect width="42" height="28" fill="white"/>
</clipPath>
</defs>
</svg>
